<?xml version="1.0" encoding="UTF-8"?>
<svg version="1.1" xmlns="http://www.w3.org/2000/svg" width="128" height="128">
<path d="M0 0 C4.21522168 1.50543631 7.33280159 3.38023073 10 7 C10.42447486 8.53539984 10.78996153 10.08779449 11.109375 11.6484375 C11.36412598 12.86926025 11.36412598 12.86926025 11.62402344 14.11474609 C11.81013184 15.04794678 11.81013184 15.04794678 12 16 C12.92628204 15.99333817 13.85256409 15.98667633 14.80691528 15.97981262 C23.54640825 15.91964209 32.2858314 15.87399534 41.02548409 15.84456348 C45.51838154 15.82892347 50.01110749 15.80771567 54.50390625 15.77368164 C58.84164994 15.74102871 63.1792289 15.72313447 67.51708603 15.71536827 C69.17005887 15.7098354 70.82302294 15.69903099 72.47592545 15.68280983 C74.79550746 15.66095629 77.11441324 15.65803632 79.43408203 15.65942383 C80.75312531 15.65276199 82.07216858 15.64610016 83.43118286 15.63923645 C88.75903089 16.1778164 91.93584628 18.00678986 95.8125 21.625 C99.43756632 26.4412425 99.25379786 31.84512902 98.57592773 37.60058594 C98.04261552 41.05340999 97.40370615 44.4831122 96.73168945 47.91137695 C96.31332312 50.05827606 95.9219895 52.20889883 95.53320312 54.36132812 C92.27597086 71.81252825 92.27597086 71.81252825 85.3125 77.8125 C84.40951172 78.62654297 84.40951172 78.62654297 83.48828125 79.45703125 C76.94302843 83.51570451 70.10777724 84.46082741 62.5390625 84.43359375 C61.6678476 84.4388356 60.79663269 84.44407745 59.89901733 84.44947815 C58.06875669 84.45585804 56.23845483 84.45461412 54.40820312 84.44604492 C51.63856466 84.43754165 48.87099772 84.46634141 46.1015625 84.49804688 C35.17756498 84.54205832 24.68749452 84.52636727 16.0625 76.875 C9.8796401 69.71798117 8.31636196 60.78721992 7.1484375 51.6640625 C7.00346832 50.62228851 6.85849915 49.58051453 6.70913696 48.50717163 C6.25236397 45.21463182 5.81242365 41.92016157 5.375 38.625 C4.92840727 35.30876022 4.47807237 31.99315518 4.0194397 28.67855835 C3.7358941 26.6250734 3.45953467 24.57058009 3.19125366 22.51504517 C3.06417023 21.58662811 2.93708679 20.65821106 2.80615234 19.70166016 C2.64438004 18.48115463 2.64438004 18.48115463 2.4793396 17.23599243 C1.97055142 14.86263014 1.25908427 13.07225254 0 11 C-3.26514506 9.36742747 -6.86158612 9.60198086 -10.46875 9.37890625 C-13 9 -13 9 -15 7 C-14.75 3.9375 -14.75 3.9375 -14 1 C-9.83879615 -1.08060192 -4.54310429 -0.33300241 0 0 Z " fill="#088178" transform="translate(21,6)"/>
<path d="M0 0 C3.26275969 1.60253423 5.23017874 3.95024374 7.375 6.875 C8.73624093 11.50321917 8.54963256 15.46416166 6.375 19.75 C4.12863821 23.22520779 2.03533044 24.78178704 -2 26 C-6.85554139 26.2789539 -10.66976595 25.66535787 -14.5 22.5625 C-18.53075578 18.43097532 -18.3888103 15.38086212 -18.359375 9.7734375 C-17.80289254 5.47884463 -16.16828113 3.86654007 -13 1 C-9.0327265 -0.98363675 -4.3131746 -0.54751158 0 0 Z " fill="#088178" transform="translate(98,96)"/>
<path d="M0 0 C3.17282395 1.66019858 5.37590133 3.75180266 7 7 C7.5880376 12.14112877 8.17453731 17.31516132 4.8125 21.5625 C0.63188674 25.18569816 -2.01816415 26.22792839 -7.5 25.9375 C-12.05492659 25.30087133 -14.16350512 23.69603878 -17 20 C-19.47951515 16.45783549 -19.43891203 13.24281627 -19 9 C-14.44696528 0.5443641 -9.31236692 -1.48028954 0 0 Z " fill="#088178" transform="translate(57,96)"/>
</svg>
