<?xml version="1.0" encoding="UTF-8"?>
<svg version="1.1" xmlns="http://www.w3.org/2000/svg" width="128" height="128">
<path d="M0 0 C0.77633789 -0.0038269 1.55267578 -0.00765381 2.35253906 -0.01159668 C3.9863414 -0.01430654 5.6201878 -0.00701031 7.25390625 0.00976562 C9.74317896 0.03119129 12.22956618 0.00993534 14.71875 -0.015625 C16.31250632 -0.01298156 17.90626085 -0.00785623 19.5 0 C20.60649902 -0.01214539 20.60649902 -0.01214539 21.73535156 -0.02453613 C26.89866993 0.06834425 29.83926402 1.18198397 33.75 4.53125 C37.66645391 9.10425706 38.34545403 12.93197517 38.28125 18.78125 C38.2850769 19.55758789 38.28890381 20.33392578 38.29284668 21.13378906 C38.29555654 22.7675914 38.28826031 24.4014378 38.27148438 26.03515625 C38.25005871 28.52442896 38.27131466 31.01081618 38.296875 33.5 C38.29423156 35.09375632 38.28910623 36.68751085 38.28125 38.28125 C38.28934692 39.01891602 38.29744385 39.75658203 38.30578613 40.51660156 C38.21290575 45.67991993 37.09926603 48.62051402 33.75 52.53125 C29.17699294 56.44770391 25.34927483 57.12670403 19.5 57.0625 C18.72366211 57.0663269 17.94732422 57.07015381 17.14746094 57.07409668 C15.5136586 57.07680654 13.8798122 57.06951031 12.24609375 57.05273438 C9.75682104 57.03130871 7.27043382 57.05256466 4.78125 57.078125 C3.18749368 57.07548156 1.59373915 57.07035623 0 57.0625 C-0.73766602 57.07059692 -1.47533203 57.07869385 -2.23535156 57.08703613 C-7.39866993 56.99415575 -10.33926402 55.88051603 -14.25 52.53125 C-18.16645391 47.95824294 -18.84545403 44.13052483 -18.78125 38.28125 C-18.7850769 37.50491211 -18.78890381 36.72857422 -18.79284668 35.92871094 C-18.79555654 34.2949086 -18.78826031 32.6610622 -18.77148438 31.02734375 C-18.75005871 28.53807104 -18.77131466 26.05168382 -18.796875 23.5625 C-18.79423156 21.96874368 -18.78910623 20.37498915 -18.78125 18.78125 C-18.78934692 18.04358398 -18.79744385 17.30591797 -18.80578613 16.54589844 C-18.71290575 11.38258007 -17.59926603 8.44198598 -14.25 4.53125 C-9.67699294 0.61479609 -5.84927483 -0.06420403 0 0 Z " fill="#ffffff" transform="translate(86.25,67.46875)"/>
<path d="M0 0 C0.77633789 -0.0038269 1.55267578 -0.00765381 2.35253906 -0.01159668 C3.9863414 -0.01430654 5.6201878 -0.00701031 7.25390625 0.00976562 C9.74317896 0.03119129 12.22956618 0.00993534 14.71875 -0.015625 C16.31250632 -0.01298156 17.90626085 -0.00785623 19.5 0 C20.60649902 -0.01214539 20.60649902 -0.01214539 21.73535156 -0.02453613 C26.89866993 0.06834425 29.83926402 1.18198397 33.75 4.53125 C37.66645391 9.10425706 38.34545403 12.93197517 38.28125 18.78125 C38.2850769 19.55758789 38.28890381 20.33392578 38.29284668 21.13378906 C38.29555654 22.7675914 38.28826031 24.4014378 38.27148438 26.03515625 C38.25005871 28.52442896 38.27131466 31.01081618 38.296875 33.5 C38.29423156 35.09375632 38.28910623 36.68751085 38.28125 38.28125 C38.28934692 39.01891602 38.29744385 39.75658203 38.30578613 40.51660156 C38.21290575 45.67991993 37.09926603 48.62051402 33.75 52.53125 C29.17699294 56.44770391 25.34927483 57.12670403 19.5 57.0625 C18.72366211 57.0663269 17.94732422 57.07015381 17.14746094 57.07409668 C15.5136586 57.07680654 13.8798122 57.06951031 12.24609375 57.05273438 C9.75682104 57.03130871 7.27043382 57.05256466 4.78125 57.078125 C3.18749368 57.07548156 1.59373915 57.07035623 0 57.0625 C-0.73766602 57.07059692 -1.47533203 57.07869385 -2.23535156 57.08703613 C-7.39866993 56.99415575 -10.33926402 55.88051603 -14.25 52.53125 C-18.16645391 47.95824294 -18.84545403 44.13052483 -18.78125 38.28125 C-18.7850769 37.50491211 -18.78890381 36.72857422 -18.79284668 35.92871094 C-18.79555654 34.2949086 -18.78826031 32.6610622 -18.77148438 31.02734375 C-18.75005871 28.53807104 -18.77131466 26.05168382 -18.796875 23.5625 C-18.79423156 21.96874368 -18.78910623 20.37498915 -18.78125 18.78125 C-18.78934692 18.04358398 -18.79744385 17.30591797 -18.80578613 16.54589844 C-18.71290575 11.38258007 -17.59926603 8.44198598 -14.25 4.53125 C-9.67699294 0.61479609 -5.84927483 -0.06420403 0 0 Z " fill="#ffffff" transform="translate(22.25,67.46875)"/>
<path d="M0 0 C0.77633789 -0.0038269 1.55267578 -0.00765381 2.35253906 -0.01159668 C3.9863414 -0.01430654 5.6201878 -0.00701031 7.25390625 0.00976562 C9.74317896 0.03119129 12.22956618 0.00993534 14.71875 -0.015625 C16.31250632 -0.01298156 17.90626085 -0.00785623 19.5 0 C20.60649902 -0.01214539 20.60649902 -0.01214539 21.73535156 -0.02453613 C26.89866993 0.06834425 29.83926402 1.18198397 33.75 4.53125 C37.66645391 9.10425706 38.34545403 12.93197517 38.28125 18.78125 C38.2850769 19.55758789 38.28890381 20.33392578 38.29284668 21.13378906 C38.29555654 22.7675914 38.28826031 24.4014378 38.27148438 26.03515625 C38.25005871 28.52442896 38.27131466 31.01081618 38.296875 33.5 C38.29423156 35.09375632 38.28910623 36.68751085 38.28125 38.28125 C38.28934692 39.01891602 38.29744385 39.75658203 38.30578613 40.51660156 C38.21290575 45.67991993 37.09926603 48.62051402 33.75 52.53125 C29.17699294 56.44770391 25.34927483 57.12670403 19.5 57.0625 C18.72366211 57.0663269 17.94732422 57.07015381 17.14746094 57.07409668 C15.5136586 57.07680654 13.8798122 57.06951031 12.24609375 57.05273438 C9.75682104 57.03130871 7.27043382 57.05256466 4.78125 57.078125 C3.18749368 57.07548156 1.59373915 57.07035623 0 57.0625 C-0.73766602 57.07059692 -1.47533203 57.07869385 -2.23535156 57.08703613 C-7.39866993 56.99415575 -10.33926402 55.88051603 -14.25 52.53125 C-18.16645391 47.95824294 -18.84545403 44.13052483 -18.78125 38.28125 C-18.7850769 37.50491211 -18.78890381 36.72857422 -18.79284668 35.92871094 C-18.79555654 34.2949086 -18.78826031 32.6610622 -18.77148438 31.02734375 C-18.75005871 28.53807104 -18.77131466 26.05168382 -18.796875 23.5625 C-18.79423156 21.96874368 -18.78910623 20.37498915 -18.78125 18.78125 C-18.78934692 18.04358398 -18.79744385 17.30591797 -18.80578613 16.54589844 C-18.71290575 11.38258007 -17.59926603 8.44198598 -14.25 4.53125 C-9.67699294 0.61479609 -5.84927483 -0.06420403 0 0 Z " fill="#ffffff" transform="translate(22.25,3.46875)"/>
<path d="M0 0 C1.010625 0.0825 2.02125 0.165 3.0625 0.25 C5.6241835 4.09252525 6.10486207 7.75194223 6.98828125 12.2421875 C8.34877424 16.05156788 9.89739528 17.7404931 13.0625 20.25 C16.56973766 21.65456636 16.56973766 21.65456636 20.3125 22.5 C27.00694444 24.19444444 27.00694444 24.19444444 28.0625 25.25 C28.3125 28.1875 28.3125 28.1875 28.0625 31.25 C24.21997475 33.8116835 20.56055777 34.29236207 16.0703125 35.17578125 C12.26093212 36.53627424 10.5720069 38.08489528 8.0625 41.25 C6.65793364 44.75723766 6.65793364 44.75723766 5.8125 48.5 C4.11805556 55.19444444 4.11805556 55.19444444 3.0625 56.25 C0.125 56.5 0.125 56.5 -2.9375 56.25 C-5.4991835 52.40747475 -5.97986207 48.74805777 -6.86328125 44.2578125 C-8.22377424 40.44843212 -9.77239528 38.7595069 -12.9375 36.25 C-16.44473766 34.84543364 -16.44473766 34.84543364 -20.1875 34 C-26.88194444 32.30555556 -26.88194444 32.30555556 -27.9375 31.25 C-28.1875 28.3125 -28.1875 28.3125 -27.9375 25.25 C-24.09497475 22.6883165 -20.43555777 22.20763793 -15.9453125 21.32421875 C-12.13593212 19.96372576 -10.4470069 18.41510472 -7.9375 15.25 C-6.53293364 11.74276234 -6.53293364 11.74276234 -5.6875 8 C-3.74323852 0.31857349 -3.74323852 0.31857349 0 0 Z " fill="#ffffff" transform="translate(95.9375,3.75)"/>
</svg>
