<?xml version="1.0" encoding="UTF-8"?>
<svg version="1.1" xmlns="http://www.w3.org/2000/svg" width="128" height="128" fill="#ffffff">
<path d="M0 0 C3.66855438 2.67112848 7.00499593 5.72508631 10.3671875 8.765625 C13.91677394 11.97505075 17.64162721 14.90229697 21.4375 17.8125 C36.85675555 29.78410307 36.85675555 29.78410307 39 40 C39.10215931 41.47306419 39.15788671 42.94979087 39.17700195 44.42626953 C39.19625481 45.72880173 39.19625481 45.72880173 39.21589661 47.05764771 C39.22328354 47.98995209 39.23067047 48.92225647 39.23828125 49.8828125 C39.246353 50.852258 39.25442474 51.82170349 39.26274109 52.82052612 C39.27656254 54.87317121 39.28729335 56.9258391 39.29516602 58.97851562 C39.30666321 61.06549878 39.32707894 63.15245306 39.35668945 65.23925781 C39.39962704 68.26647783 39.41557321 71.29282471 39.42578125 74.3203125 C39.44328934 75.2404715 39.46079742 76.16063049 39.47883606 77.1086731 C39.45409465 84.61226154 37.79979451 91.46341746 33.0703125 97.4375 C32.10738281 98.2109375 32.10738281 98.2109375 31.125 99 C30.48820312 99.53625 29.85140625 100.0725 29.1953125 100.625 C23.68629483 104.07548793 18.30886097 104.36458934 12 104.375 C11.21882813 104.39949219 10.43765625 104.42398438 9.6328125 104.44921875 C4.29715492 104.47616652 1.17079407 103.62401314 -3 100 C-5.01894387 96.81885647 -5.26031456 94.26653823 -5.30859375 90.53515625 C-5.33373047 89.48779297 -5.35886719 88.44042969 -5.38476562 87.36132812 C-5.4198585 85.16607369 -5.45112249 82.97075464 -5.47851562 80.77539062 C-5.50494141 79.72673828 -5.53136719 78.67808594 -5.55859375 77.59765625 C-5.57204834 76.64383057 -5.58550293 75.69000488 -5.59936523 74.70727539 C-6.17337695 70.82841133 -7.67366701 68.00618365 -10.8125 65.625 C-13.91314004 64.73910285 -15.91616529 65.10054821 -19 66 C-21.25726011 67.89121793 -22.68646424 69.37292849 -24 72 C-24.10585832 73.74256283 -24.15534961 75.48871932 -24.17578125 77.234375 C-24.19962891 78.28367187 -24.22347656 79.33296875 -24.24804688 80.4140625 C-24.29071005 82.62220482 -24.32212526 84.83059568 -24.34179688 87.0390625 C-24.50516118 93.2545046 -24.66420161 97.36491641 -29 102 C-32.62822436 104.88760058 -37.31863141 104.330602 -41.75 104.3125 C-42.91015625 104.33666992 -42.91015625 104.33666992 -44.09375 104.36132812 C-50.71617457 104.36688385 -56.25569128 103.24771952 -61.4609375 98.984375 C-62.09257813 98.24703125 -62.72421875 97.5096875 -63.375 96.75 C-64.02210937 96.02296875 -64.66921875 95.2959375 -65.3359375 94.546875 C-69.36153134 88.38563748 -69.30781778 81.88066629 -69.30078125 74.75390625 C-69.30506638 73.78396225 -69.3093515 72.81401825 -69.31376648 71.81468201 C-69.31948726 69.77156349 -69.32002673 67.72842462 -69.31567383 65.68530273 C-69.31251337 62.57565271 -69.33600339 59.46695457 -69.36132812 56.35742188 C-69.36360144 54.36458452 -69.36430446 52.37174464 -69.36328125 50.37890625 C-69.372491 49.45783585 -69.38170074 48.53676544 -69.39118958 47.58778381 C-69.33006979 38.97503222 -67.20034701 32.57236704 -61.2734375 26.1953125 C-56.9350102 22.00597205 -52.30738126 18.16929931 -47.64453125 14.35058594 C-46.09789281 13.08039534 -44.56410461 11.79460361 -43.03125 10.5078125 C-29.73804123 -0.5823083 -17.02285901 -9.19977361 0 0 Z "  transform="translate(79,14)"/>
</svg>
