<?xml version="1.0" encoding="UTF-8"?>
<svg version="1.1" xmlns="http://www.w3.org/2000/svg" width="128" height="128">
<path d="M0 0 C6.98628662 3.94139638 12.40471091 5.48898908 20.4375 4.5 C26.01301875 2.72886952 31.17144083 0.46020155 35.9375 -2.9375 C41.3624144 -5.35933679 45.89539917 -4.29823484 51.4375 -2.5 C58.77051133 1.21474916 62.79521998 7.06695359 65.59375 14.62109375 C69.31785502 26.1259182 72.08390738 39.76238544 67.6171875 51.4609375 C64.45402732 56.92838656 59.3575833 60.55123205 53.4375 62.5 C50.98143189 62.69692782 48.51587086 62.78636765 46.05200195 62.80639648 C44.9630941 62.81888176 44.9630941 62.81888176 43.85218811 62.83161926 C41.45999731 62.85564789 39.06807982 62.86448406 36.67578125 62.87109375 C35.00294416 62.88006801 33.33010786 62.88919 31.65727234 62.89845276 C28.15113378 62.9149277 24.64509051 62.9226397 21.13891602 62.92553711 C16.66797629 62.93090852 12.19794538 62.96854283 7.72726154 63.01428127 C4.27061277 63.04417807 0.8141791 63.05126344 -2.64258766 63.05226326 C-4.28947915 63.05644332 -5.93637261 63.06878778 -7.5831356 63.08978081 C-25.17781003 63.29616175 -25.17781003 63.29616175 -32.5625 57.5 C-39.28854222 49.36987057 -39.2086012 40.6437889 -38.5625 30.5 C-37.26048662 19.38875021 -34.5552918 8.69131566 -26 0.9375 C-17.22016307 -5.76290187 -9.28258164 -5.24901488 0 0 Z " fill="#088178" transform="translate(48.5625,65.5)"/>
<path d="M0 0 C8.96806982 4.8947862 14.77033996 11.74851989 18 21.4375 C18.80238509 32.28942955 18.15977517 41.43342895 11.25 50.25 C5.73842644 56.15128079 -1.22496037 59.95094383 -9.296875 60.7734375 C-18.74480674 60.88031456 -25.39679931 59.53580816 -33.25 54.25 C-40.2058776 47.13603427 -44.26080935 39.78195322 -44.375 29.6875 C-44.20830057 20.37194348 -41.67006026 13.04515253 -35.15234375 6.265625 C-25.36115008 -2.05067017 -12.16425029 -4.81107654 0 0 Z " fill="#088178" transform="translate(76,1.5625)"/>
</svg>
